<svg xmlns="http://www.w3.org/2000/svg" xmlns:xlink="http://www.w3.org/1999/xlink" viewBox="0 0 71 63"><defs><style>.cls-1{fill:#29abe2;}</style><symbol id="Shopping_Cart" data-name="Shopping Cart" viewBox="0 0 70.5 63"><path class="cls-1" d="M67,41.5H17.75V39.07l45.23-6a4.81,4.81,0,0,0,4.15-4.74V13.42a4.49,4.49,0,0,0-4.5-4.5H17.75V5.5A5.5,5.5,0,0,0,12.25,0H3.5a3.5,3.5,0,0,0,0,7h7.25V43a5.5,5.5,0,0,0,5.5,5.5H67a3.5,3.5,0,0,0,0-7ZM37.44,31.42l-8.6,1.14V13.92h8.6Zm4-17.5H50V29.75l-8.6,1.14ZM62.13,28.15,54,29.22V13.92h8.09ZM24.85,13.92V33.09l-7.1.94V13.92Z"/><path class="cls-1" d="M26.67,49.17a6.92,6.92,0,1,0,6.91,6.91A6.92,6.92,0,0,0,26.67,49.17Z"/><path class="cls-1" d="M60,49.17a6.92,6.92,0,1,0,6.92,6.91A6.92,6.92,0,0,0,60,49.17Z"/></symbol></defs><title>Asset 2</title><g id="Layer_2" data-name="Layer 2"><g id="Layer_1-2" data-name="Layer 1"><use width="70.5" height="63" transform="scale(1.01 1)" xlink:href="#Shopping_Cart"/></g></g></svg>